<?xml version="1.0" standalone="no"?>
<!DOCTYPE svg PUBLIC "-//W3C//DTD SVG 20010904//EN"
 "http://www.w3.org/TR/2001/REC-SVG-20010904/DTD/svg10.dtd">
<svg version="1.0" xmlns="http://www.w3.org/2000/svg"
 width="100.000000pt" height="100.000000pt" viewBox="0 0 100.000000 100.000000"
 preserveAspectRatio="xMidYMid meet">
<metadata>
Created by potrace 1.14, written by Peter Selinger 2001-2017
</metadata>
<g transform="translate(0.000000,100.000000) scale(0.100000,-0.100000)"
fill="#000000" stroke="none">
<path d="M629 865 c-1 -5 -1 -18 0 -27 1 -10 -3 -18 -8 -18 -13 0 -6 -66 11
-115 18 -51 29 -117 33 -195 7 -120 17 -193 31 -222 8 -15 11 -34 8 -42 -11
-27 50 -21 63 7 21 43 22 57 8 98 -11 31 -13 51 -6 78 12 44 10 72 -6 89 -7 7
-13 22 -13 32 0 10 -4 21 -9 24 -4 3 -7 35 -5 71 3 60 1 65 -17 65 -16 0 -19
5 -14 20 3 11 2 20 -3 20 -6 0 -13 28 -17 61 -4 34 -11 56 -15 49 -10 -15 -21
-15 -31 2 -5 7 -9 9 -10 3z m8 -137 c-3 -7 -5 -2 -5 12 0 14 2 19 5 13 2 -7 2
-19 0 -25z"/>
<path d="M800 840 c0 -5 5 -10 10 -10 6 0 10 5 10 10 0 6 -4 10 -10 10 -5 0
-10 -4 -10 -10z"/>
<path d="M277 773 c-5 -9 0 -279 6 -328 2 -17 9 -40 15 -51 6 -12 13 -38 15
-59 4 -35 22 -59 38 -49 11 6 18 -9 21 -45 1 -18 6 -35 10 -37 4 -3 8 -16 8
-29 0 -29 19 -43 31 -24 5 8 9 10 9 5 0 -5 9 -1 20 9 17 16 25 17 59 7 55 -17
75 -15 99 11 32 34 42 69 28 95 -7 13 -16 19 -21 15 -5 -4 -4 -1 2 7 12 16 11
51 -2 83 -4 9 -8 53 -9 97 -1 56 -5 80 -13 80 -7 0 -15 11 -19 24 -12 50 -101
76 -144 41 -19 -16 -50 -15 -50 1 0 6 -7 25 -15 40 -9 17 -13 40 -9 57 4 20 2
27 -9 27 -8 0 -17 7 -21 15 -6 15 -41 21 -49 8z m205 -245 c3 -7 11 -44 18
-83 7 -38 15 -77 18 -85 3 -8 6 -19 7 -25 1 -5 8 -23 15 -38 13 -26 12 -30
-19 -57 -35 -32 -64 -40 -55 -15 4 8 1 15 -5 15 -6 0 -11 7 -11 15 0 8 -7 15
-16 15 -13 0 -14 3 -5 14 8 9 8 16 2 20 -6 4 -14 35 -18 69 l-8 62 -6 -50 c-6
-45 -7 -42 -6 25 0 83 8 107 40 120 31 12 44 12 49 -2z"/>
<path d="M841 684 c0 -11 3 -14 6 -6 3 7 2 16 -1 19 -3 4 -6 -2 -5 -13z"/>
<path d="M861 661 c-1 -9 -9 -11 -26 -7 -23 6 -25 3 -25 -24 0 -16 4 -30 8
-30 15 0 53 51 48 63 -3 8 -5 8 -5 -2z"/>
<path d="M151 636 c0 -11 -8 -27 -16 -36 -21 -23 -9 -182 15 -208 22 -23 36
-82 21 -82 -6 0 -11 -4 -11 -10 0 -5 7 -10 15 -10 16 0 16 -2 18 -82 1 -46 -2
-53 -19 -56 -14 -2 -27 7 -39 25 -10 15 -26 34 -34 40 -14 11 -14 14 -1 23 12
8 11 10 -7 10 -13 0 -23 5 -23 10 0 6 8 10 19 10 35 0 13 49 -35 79 -28 17
-41 30 -34 37 5 5 12 34 16 65 5 45 3 58 -11 73 -10 10 -15 26 -13 41 3 13 1
22 -3 19 -5 -3 -9 -88 -9 -190 0 -188 4 -207 37 -166 13 15 14 15 10 -11 -2
-15 0 -30 4 -33 5 -3 9 -16 9 -30 0 -34 18 -66 32 -58 7 5 9 1 5 -9 -5 -14 0
-17 32 -17 31 0 44 6 60 28 17 24 22 26 41 14 17 -10 24 -10 44 3 25 17 39 58
24 73 -4 4 -9 37 -10 73 -1 35 -3 56 -5 47 -6 -26 -15 -22 -39 15 -18 27 -21
42 -16 101 3 44 1 71 -6 75 -14 8 -17 57 -7 94 6 24 5 28 -11 27 -33 -4 -42 0
-47 18 -4 15 -5 15 -6 -2z m-51 -442 c0 -2 -7 -4 -15 -4 -8 0 -15 4 -15 10 0
5 7 7 15 4 8 -4 15 -8 15 -10z"/>
<path d="M850 566 c0 -14 -7 -31 -15 -39 -11 -12 -12 -17 -2 -20 9 -4 9 -6 0
-6 -17 -1 -16 -21 2 -41 13 -14 12 -19 -1 -45 -14 -27 -13 -33 3 -67 15 -31
22 -38 40 -33 12 3 24 0 27 -8 3 -6 3 -2 1 10 -3 12 -1 24 5 28 5 3 10 20 10
36 0 18 4 28 10 24 20 -12 10 8 -16 31 -14 13 -20 24 -15 24 17 0 13 65 -6 99
-21 37 -43 40 -43 7z"/>
<path d="M957 556 c-6 -16 11 -26 31 -19 10 4 10 8 1 19 -15 18 -25 18 -32 0z"/>
<path d="M927 520 c-3 -11 -1 -20 4 -20 5 0 9 9 9 20 0 11 -2 20 -4 20 -2 0
-6 -9 -9 -20z"/>
<path d="M976 444 c-11 -29 -6 -72 9 -78 12 -4 15 4 15 44 0 49 -12 66 -24 34z"/>
<path d="M80 359 c0 -5 5 -7 10 -4 6 3 10 8 10 11 0 2 -4 4 -10 4 -5 0 -10 -5
-10 -11z"/>
<path d="M850 279 c0 -11 5 -17 10 -14 6 3 10 13 10 21 0 8 -4 14 -10 14 -5 0
-10 -9 -10 -21z"/>
</g>
</svg>
