<?xml version="1.0" standalone="no"?>
<!DOCTYPE svg PUBLIC "-//W3C//DTD SVG 20010904//EN"
 "http://www.w3.org/TR/2001/REC-SVG-20010904/DTD/svg10.dtd">
<svg version="1.0" xmlns="http://www.w3.org/2000/svg"
 width="256.000000pt" height="256.000000pt" viewBox="0 0 256.000000 256.000000"
 preserveAspectRatio="xMidYMid meet">
<metadata>
Created by potrace 1.14, written by Peter Selinger 2001-2017
</metadata>
<g transform="translate(0.000000,256.000000) scale(0.100000,-0.100000)"
fill="#000000" stroke="none">
<path d="M1158 2515 c-1 -1 -21 -6 -43 -9 -93 -14 -114 -18 -194 -42 -222 -67
-436 -208 -594 -392 -105 -123 -222 -358 -252 -507 -29 -148 -32 -184 -30
-313 2 -70 10 -163 19 -207 98 -490 469 -868 955 -976 118 -26 328 -32 451
-13 327 49 634 242 832 522 26 37 47 70 48 75 0 4 11 24 23 45 36 57 95 216
118 322 41 180 32 420 -20 602 -100 341 -348 632 -664 777 -174 80 -309 111
-509 116 -75 2 -138 2 -140 0z"/>
</g>
</svg>
